<?xml version="1.0" encoding="UTF-8"?>
<svg id="Ebene_2" data-name="Ebene 2" xmlns="http://www.w3.org/2000/svg" viewBox="0 0 149.65 149.65">
  <defs>
    <style>
      .cls-1 {
        fill: none;
        stroke: #fff;
        stroke-linecap: round;
        stroke-miterlimit: 10;
        stroke-width: 3px;
      }
    </style>
  </defs>
  <g id="Ebene_2-2" data-name="Ebene 2">
    <g>
      <path class="cls-1" d="M35.89,21.64h-11.51c-7.89,7.48-14.11,16.7-18.06,27.04h56.61c0-14.93-12.11-27.04-27.04-27.04Z"/>
      <path class="cls-1" d="M62.93,48.68H6.32c-3.1,8.12-4.82,16.93-4.82,26.15,0,.3.02.6.02.89h34.37c14.93,0,27.04-12.11,27.04-27.04Z"/>
      <path class="cls-1" d="M74.82,1.5c-19.55,0-37.3,7.67-50.44,20.14h11.51c14.93,0,27.04,12.11,27.04,27.04h4.73c14.93,0,27.04,12.11,27.04,27.04h4.73c14.93,0,27.04,12.11,27.04,27.04s-12.11,27.04-27.04,27.04H26.33c12.93,11.41,29.89,18.35,48.49,18.35,40.5,0,73.32-32.83,73.32-73.32S115.32,1.5,74.82,1.5Z"/>
      <path class="cls-1" d="M126.48,102.76c0-14.93-12.11-27.04-27.04-27.04h-4.73c0,14.93-12.11,27.04-27.04,27.04H7.02c4.31,10.45,10.96,19.68,19.31,27.04h73.11c14.93,0,27.04-12.11,27.04-27.04Z"/>
      <path class="cls-1" d="M94.71,75.72H1.52c.11,9.57,2.06,18.69,5.5,27.04h60.64c14.93,0,27.04-12.11,27.04-27.04Z"/>
      <path class="cls-1" d="M35.89,75.72h58.82c0-14.93-12.11-27.04-27.04-27.04h-4.73c0,14.93-12.11,27.04-27.04,27.04Z"/>
    </g>
  </g>
</svg>