<?xml version="1.0" encoding="UTF-8"?>
<svg id="Ebene_2" data-name="Ebene 2" xmlns="http://www.w3.org/2000/svg" viewBox="0 0 152 151">
  <defs>
    <style>
      .cls-1 {
        fill: none;
        stroke: #1d1d1b;
        stroke-linecap: round;
        stroke-miterlimit: 10;
        stroke-width: 3px;
      }
    </style>
  </defs>
  <path class="cls-1" d="M57.82,30.85h-9.5c-6.51,6.18-11.65,13.78-14.91,22.32h46.74c0-12.33-9.99-22.32-22.32-22.32Z"/>
  <path class="cls-1" d="M80.15,53.18h-46.74c-2.56,6.71-3.98,13.98-3.98,21.59,0,.25.02.49.02.74h28.37c12.33,0,22.32-9.99,22.32-22.32Z"/>
  <path class="cls-1" d="M89.97,14.23c-16.14,0-30.79,6.33-41.64,16.62h9.5c12.33,0,22.32,10,22.32,22.32h3.91c12.33,0,22.32,9.99,22.32,22.32h3.91c12.33,0,22.32,9.99,22.32,22.32s-9.99,22.32-22.32,22.32h-60.36c10.67,9.42,24.68,15.15,40.03,15.15,33.43,0,60.53-27.1,60.53-60.53S123.4,14.23,89.97,14.23Z"/>
  <path class="cls-1" d="M132.62,97.82c0-12.33-9.99-22.32-22.32-22.32h-3.91c0,12.33-9.99,22.32-22.32,22.32h-50.07c3.56,8.63,9.05,16.24,15.94,22.32h60.36c12.33,0,22.32-9.99,22.32-22.32Z"/>
  <path class="cls-1" d="M106.38,75.5H29.45c.09,7.9,1.7,15.43,4.54,22.32h50.07c12.33,0,22.32-9.99,22.32-22.32Z"/>
  <path class="cls-1" d="M57.82,75.5h48.56c0-12.33-9.99-22.32-22.32-22.32h-3.91c0,12.33-9.99,22.32-22.32,22.32Z"/>
</svg>